<svg width="23" height="25" viewBox="0 0 23 25" fill="none" xmlns="http://www.w3.org/2000/svg">
<path d="M9.75543 0.0309696C4.37601 0.0309696 0 4.8932 0 10.8703C0 16.8475 4.37601 21.7097 9.75543 21.7097C11.3999 21.7097 13.0165 21.2761 14.3823 20.44C14.4917 20.5862 14.613 20.721 14.7446 20.8426L17.5319 23.9395C17.7893 24.2613 18.1031 24.5212 18.4542 24.7034C18.8052 24.8855 19.1861 24.986 19.5733 24.9986C19.9606 25.0113 20.3461 24.9359 20.7062 24.777C21.0663 24.6181 21.3933 24.3792 21.6673 24.0748C21.9413 23.7704 22.1563 23.407 22.2993 23.0069C22.4423 22.6068 22.5102 22.1784 22.4988 21.7481C22.4874 21.3179 22.3969 20.8947 22.233 20.5046C22.0691 20.1146 21.8352 19.7659 21.5456 19.4799L18.7583 16.3829C18.6225 16.232 18.4731 16.0971 18.3123 15.9803C19.0649 14.4628 19.5387 12.6975 19.5387 10.8394C19.5387 4.86223 15.1627 0 9.7833 0L9.75543 0.0309696ZM9.75543 3.12793C13.6297 3.12793 16.7236 6.56556 16.7236 10.8703C16.7236 12.9143 16.0546 14.8035 14.884 16.1971C14.8561 16.2281 14.8283 16.2591 14.8004 16.29C14.6687 16.4116 14.5474 16.5463 14.438 16.6926C13.2116 17.9314 11.5393 18.6437 9.72756 18.6437C5.85326 18.6437 2.75939 15.2061 2.75939 10.9013C2.75939 6.59653 5.85326 3.1589 9.72756 3.1589L9.75543 3.12793Z" fill="#787878"/>
</svg>
