<svg width="336" height="83" viewBox="0 0 336 83" fill="none" xmlns="http://www.w3.org/2000/svg">
<path d="M78.5952 81.8687C72.565 80.0321 65.2936 74.2397 66.2675 72.0494C66.519 71.4839 66.408 71.313 66.0108 71.6542C65.1505 72.3931 62.0263 67.3839 60.79 63.2837C56.2199 48.1271 60.9889 31.8246 72.3294 23.838C73.9027 22.73 75.6209 22.0532 76.1474 22.3341C76.6741 22.6149 76.9474 22.4904 76.7548 22.0573C76.3233 21.0871 80.1992 20.1419 84.6043 20.1429C90.0903 20.1442 99.3498 24.4424 98.4114 26.5522C98.1998 27.0281 98.461 27.1857 98.9919 26.9026C100.571 26.0604 105.151 32.6426 107.397 38.9818C111.941 51.8108 109.156 66.4726 100.437 75.617C94.8044 81.5249 85.865 84.0831 78.5952 81.8687ZM88.9494 74.7433C92.3935 71.5406 93.7592 65.1626 93.7916 52.1305C93.8305 36.4975 91.742 29.6165 86.2659 27.3366C82.3016 25.6859 79.2225 28.223 76.708 35.2116C74.8562 40.3587 74.7342 41.3508 74.7398 51.216C74.7472 63.992 75.6555 68.7165 78.997 73.3605C81.0437 76.2047 81.9553 76.8232 84.1011 76.8232C85.7239 76.8232 87.5604 76.0349 88.9494 74.7433ZM133.002 82.1827C125.425 80.4379 117.452 72.8151 114.579 64.5688C110.095 51.6949 112.737 36.9316 121.142 27.8988C134.274 13.7866 154.44 19.7915 161.022 39.7731C166.29 55.7628 159.845 74.4668 147.052 80.3171C142.038 82.61 137.483 83.2147 133.002 82.1827ZM141.558 75.4297C142.716 74.5973 144.216 72.1135 145.286 69.2566C146.962 64.7833 147.078 63.7128 147.099 52.5874C147.124 39.8919 146.152 33.9702 143.495 30.6285C142.792 29.7452 142.33 28.7688 142.468 28.4588C142.606 28.1488 141.932 27.7468 140.972 27.5656C134.634 26.3699 132.316 28.0179 129.786 35.5175C128.192 40.2439 128.041 41.6617 128.066 51.6727C128.088 60.8546 128.335 63.4958 129.576 67.8426C131.88 75.9106 136.669 78.9432 141.558 75.4297ZM279.398 82.8562C279.036 82.6689 277.048 81.9955 274.979 81.3597C272.91 80.724 271.371 79.8592 271.558 79.4382C271.746 79.0171 271.474 78.8993 270.954 79.1763C269.726 79.8316 265.25 77.2295 265.25 75.86C265.25 75.2792 266.024 71.3505 266.971 67.1295L268.693 59.455L271.811 65.1783C277.061 74.8156 282.811 78.8707 288.309 76.813C291.599 75.5816 294.541 70.5796 293.938 67.2414C293.331 63.8821 291.329 62.4932 283.937 60.306C273.488 57.214 268.942 52.7659 267.237 43.9678C266.49 40.1139 267.775 31.4141 269.038 31.7716C269.462 31.8914 269.651 31.4193 269.459 30.7227C269.029 29.1675 272.089 24.9552 274.873 23.2687C280.59 19.805 289.691 19.8535 300.292 23.4042C303.648 24.5283 304.734 25.2781 304.734 26.4715C304.734 27.7595 303.46 33.943 301.744 40.9879C301.573 41.692 300.153 39.8118 298.321 36.4551C294.373 29.2192 291.751 27.0235 287.169 27.1149C285.261 27.1533 283.297 27.6496 282.805 28.218C282.312 28.7863 281.689 28.9462 281.421 28.5733C281.153 28.2005 281.005 28.3069 281.092 28.8099C281.18 29.3129 281.035 30.4099 280.769 31.2476C280.504 32.0854 280.383 33.9372 280.5 35.363C280.759 38.5066 284.486 41.4481 290.169 42.9938C297.301 44.934 300.939 46.92 303.445 50.2417C308.165 56.5003 308.584 66.953 304.404 74.2016C302.57 77.3827 299.679 79.8551 298.738 79.0471C298.27 78.6455 298.121 78.7565 298.372 79.3199C299.03 80.8007 293.26 82.4965 286.307 82.8656C282.869 83.0481 279.76 83.0435 279.398 82.8562ZM0.532385 80.8505C-0.448805 79.4869 0.0193563 77.5267 1.17852 78.1449C1.80089 78.4768 2.11707 78.48 1.88115 78.1522C1.64522 77.8243 2.07053 75.9074 2.82628 73.8923C4.15973 70.3369 4.18876 69.3994 3.80641 42.2028L3.41242 14.1769L1.72973 12.1631C0.80421 11.0555 0.0470284 9.71801 0.0470284 9.19088C0.0470284 8.54328 6.67516 8.23245 20.4862 8.23245C32.5434 8.23245 40.774 8.57251 40.5568 9.06169C40.354 9.51778 40.7513 9.68622 41.4398 9.43602C43.1975 8.79726 48.6221 12.326 50.4916 15.3243C52.9695 19.2983 53.6018 23.9461 52.4269 29.5481C51.3352 34.7533 49.9408 36.8428 45.8665 39.3775C43.6179 40.7765 43.3907 41.1411 44.4803 41.6015C48.5818 43.3345 53.1518 47.4085 54.8917 50.8831C60.0014 61.0857 56.6475 73.7593 47.4937 78.8386C43.9949 80.78 42.7324 80.8991 22.4137 81.2037C10.6461 81.3802 0.799564 81.2215 0.532385 80.8505ZM36.0448 72.287C40.815 68.2449 41.9231 57.681 38.1957 51.7813C35.7457 47.9034 31.5616 45.7587 25.2184 45.1294L20.4474 44.656L20.4511 55.0231C20.4551 66.3213 21.195 71.696 22.9411 73.1108C23.5602 73.6124 26.2878 74.0338 29.0024 74.0472C32.7617 74.0658 34.4403 73.6468 36.0448 72.287ZM32.3837 35.9947C35.0882 33.8059 36.0001 31.241 36.4017 24.6938C36.5714 21.9273 36.578 20.1866 36.4164 20.8256C36.2245 21.5845 35.6485 21.1497 34.7553 19.5716C32.9594 16.3986 30.1469 14.8477 24.8111 14.088L20.4475 13.4667V38.6521L25.3095 38.2184C28.4724 37.9364 30.9445 37.1595 32.3837 35.9947ZM162.189 80.0935C161.83 78.7929 164.475 74.342 165.363 74.7532C165.621 74.8729 165.645 74.291 165.415 73.4601C165.186 72.6291 165.271 72.1837 165.604 72.4704C165.971 72.7867 166.026 60.5339 165.744 41.2976L165.278 9.60351L163.454 7.57279C162.294 6.28202 161.864 5.23762 162.274 4.70655C163.015 3.74666 175.011 0.00091494 177.345 0.00091494C178.201 0.00091494 179.062 0.58361 179.258 1.2958C179.455 2.00799 179.561 11.4608 179.493 22.3008L179.371 42.0117L180.805 41.8464C181.594 41.7555 182.186 41.4109 182.121 41.0807C182.056 40.7504 183.706 38.5239 185.787 36.1329C189.548 31.8118 190.55 28.816 188.584 27.7675C188.041 27.478 187.597 26.6678 187.597 25.9672C187.597 24.78 191.257 24.4646 205.036 24.4646C207.442 24.4646 207.937 24.7618 207.594 26.0011C207.396 26.7205 206.309 27.7567 205.18 28.3037C203.189 29.2684 188.51 42.5842 187.883 43.9953C187.711 44.3806 188.943 44.9819 190.62 45.3313C192.588 45.7415 194.445 46.9133 195.858 48.637C198.12 51.3982 208.466 73.7858 208.145 75.2289C208.046 75.6769 208.244 75.8032 208.586 75.5095C209.21 74.9735 211.945 79.1212 211.945 80.6035C211.945 81.7309 196.324 81.5873 194.789 80.4457C194.088 79.9238 192.596 76.9402 191.474 73.8154C186.284 59.3603 182.727 51.2154 181.603 51.2154C179.876 51.2154 179.505 54.176 180.025 63.8049C180.481 72.2631 180.562 72.5991 183.049 76.3486C184.454 78.4675 185.411 80.4698 185.174 80.7983C184.938 81.1267 179.751 81.3955 173.646 81.3955C164.656 81.3955 162.481 81.1474 162.189 80.0935ZM213.584 80.4649C213.159 79.5089 216.512 73.9357 217.171 74.5022C217.71 74.9647 217.744 68.5459 217.37 37.5678C217.033 9.7642 217.032 9.74408 215.476 7.74034C214.62 6.63768 213.92 5.32588 213.92 4.82535C213.92 3.94509 226.634 -0.00146285 229.465 4.06789e-07C230.857 0.000704597 230.863 0.108684 231.211 34.0673C231.43 55.4033 231.839 69.4003 232.305 71.5238C232.726 73.4388 233.899 75.754 235.001 76.8447C236.074 77.9066 236.952 79.3648 236.952 80.085C236.952 81.1712 234.996 81.3945 225.475 81.3945C218.409 81.3945 213.839 81.0372 213.584 80.4649ZM239.906 80.4613C239.677 79.948 240.252 78.2701 241.183 76.7326C242.114 75.1951 243.061 72.9136 243.287 71.6626C243.512 70.4115 243.569 60.9195 243.412 50.5698L243.128 31.7514L241.205 29.6213C239.995 28.2798 239.522 27.1883 239.927 26.6731C240.282 26.2232 244.081 24.915 248.369 23.766C254.961 22 256.257 21.8748 256.75 22.9566C257.071 23.6605 257.345 33.7015 257.359 45.2703C257.386 67.7322 257.766 72.1667 259.936 75.3777C260.694 76.4981 261.163 77.6929 260.979 78.0328C260.794 78.3728 260.838 78.4487 261.076 78.2016C261.715 77.5386 263.322 79.6365 262.901 80.5836C262.386 81.7414 240.424 81.6245 239.906 80.4613ZM314.696 80.5918C313.13 79.188 312.654 72.3243 312.72 52.1297L312.784 32.4673L310.56 32.01C308.559 31.5984 308.321 31.2327 308.183 28.3519C308.036 25.2785 308.186 25.0494 311.937 22.5995C314.225 21.1053 317.904 17.375 320.815 13.5966C324.085 9.3526 325.895 7.56579 326.105 8.37451C326.28 9.05068 326.503 12.6612 326.601 16.3978L326.78 23.1917L331.156 22.9684C333.563 22.8457 335.707 23.1361 335.919 23.6138C336.132 24.0916 335.911 26.0733 335.428 28.0176C334.565 31.497 334.49 31.5599 330.666 32.01L326.78 32.4673L327.016 51.6724C327.161 63.4699 327.544 71.7538 328.007 73.1484C328.421 74.3972 329.709 76.2492 330.869 77.2638C332.028 78.2785 332.891 79.5203 332.785 80.0233C332.545 81.1768 315.93 81.6989 314.696 80.5918ZM247.151 18.1054C243.998 15.6022 242.53 10.2315 243.822 5.93115C244.975 2.09688 247.199 0.000494255 250.112 0.000494255C256.926 0.000494255 259.503 11.808 253.853 17.148C251.472 19.3988 249.191 19.7248 247.151 18.1054Z" fill="#8E8E8E"/>
</svg>
