<svg width="150" height="30" viewBox="0 0 150 30" fill="none" xmlns="http://www.w3.org/2000/svg">
<path d="M35.0872 29.5911C32.3951 28.9273 29.1489 26.8336 29.5837 26.042C29.696 25.8376 29.6464 25.7758 29.4691 25.8991C29.0851 26.1662 27.6903 24.3556 27.1384 22.8736C25.0982 17.3953 27.2272 11.5029 32.2899 8.61615C32.9923 8.21565 33.7593 7.97104 33.9944 8.07255C34.2295 8.17406 34.3515 8.12905 34.2655 7.97252C34.0729 7.62184 35.8032 7.28021 37.7698 7.28058C40.2189 7.28104 44.3526 8.83461 43.9336 9.5972C43.8392 9.76918 43.9558 9.82616 44.1928 9.72383C44.8978 9.41943 46.9425 11.7985 47.945 14.0898C49.9738 18.7268 48.7303 24.0263 44.838 27.3315C42.3234 29.4668 38.3326 30.3915 35.0872 29.5911ZM39.7095 27.0156C41.2471 25.8581 41.8568 23.5527 41.8713 18.8424C41.8886 13.1919 40.9562 10.7048 38.5116 9.8807C36.7418 9.28408 35.3672 10.2011 34.2446 12.7271C33.4179 14.5875 33.3635 14.9461 33.366 18.5118C33.3693 23.1296 33.7748 24.8373 35.2665 26.5158C36.1802 27.5439 36.5872 27.7674 37.5451 27.7674C38.2696 27.7674 39.0895 27.4825 39.7095 27.0156ZM59.3757 29.7046C55.9931 29.0739 52.4339 26.3187 51.1515 23.3381C49.1496 18.6849 50.3292 13.3488 54.0814 10.0839C59.9439 4.98311 68.9466 7.15356 71.885 14.3758C74.2366 20.1552 71.3595 26.9157 65.6483 29.0303C63.4097 29.859 61.3761 30.0777 59.3754 29.7047L59.3757 29.7046ZM63.1955 27.2637C63.7126 26.9629 64.3823 26.0651 64.8599 25.0325C65.6079 23.4157 65.6598 23.0287 65.6694 19.0075C65.6802 14.4187 65.2463 12.2784 64.0601 11.0706C63.7466 10.7513 63.5403 10.3984 63.6018 10.2863C63.6633 10.1743 63.3627 10.029 62.9339 9.96348C60.1045 9.53128 59.0694 10.1269 57.9401 12.8376C57.2284 14.546 57.161 15.0584 57.1721 18.6769C57.1823 21.9957 57.2925 22.9503 57.8466 24.5214C58.8751 27.4376 61.013 28.5337 63.1955 27.2637ZM124.731 29.948C124.57 29.8803 123.682 29.6369 122.759 29.4071C121.835 29.1773 121.148 28.8648 121.231 28.7126C121.315 28.5604 121.194 28.5178 120.962 28.6179C120.413 28.8548 118.415 27.9143 118.415 27.4193C118.415 27.2094 118.761 25.7894 119.184 24.2637L119.952 21.4898L121.344 23.5584C123.688 27.0418 126.255 28.5075 128.709 27.7637C130.178 27.3187 131.492 25.5107 131.222 24.3041C130.952 23.0899 130.057 22.5879 126.758 21.7973C122.093 20.6797 120.063 19.072 119.302 15.892C118.969 14.499 119.542 11.3545 120.106 11.4837C120.295 11.527 120.38 11.3564 120.294 11.1046C120.102 10.5425 121.468 9.01994 122.711 8.41036C125.264 7.15842 129.326 7.17598 134.059 8.45936C135.557 8.86564 136.042 9.13666 136.042 9.568C136.042 10.0336 135.473 12.2686 134.707 14.8149C134.631 15.0694 133.997 14.3898 133.179 13.1765C131.417 10.5612 130.246 9.76753 128.2 9.80058C127.349 9.81443 126.472 9.99384 126.252 10.1993C126.032 10.4047 125.754 10.4625 125.634 10.3277C125.515 10.1929 125.449 10.2314 125.488 10.4132C125.527 10.595 125.462 10.9915 125.343 11.2943C125.225 11.5971 125.171 12.2665 125.223 12.7818C125.339 13.9181 127.003 14.9812 129.54 15.5399C132.724 16.2412 134.348 16.959 135.466 18.1597C137.574 20.4218 137.761 24.1999 135.895 26.8199C135.076 27.9696 133.785 28.8633 133.365 28.5713C133.156 28.4261 133.09 28.4662 133.202 28.6698C133.496 29.2051 130.92 29.818 127.816 29.9514C126.281 30.0174 124.893 30.016 124.731 29.9483L124.731 29.948ZM0.237672 29.2231C-0.200359 28.7302 0.00864119 28.0217 0.526126 28.2451C0.803969 28.3651 0.94512 28.3663 0.839799 28.2478C0.734472 28.1293 0.924344 27.4364 1.26173 26.7081C1.85702 25.423 1.86998 25.0841 1.69929 15.254L1.5234 5.12419L0.772199 4.3963C0.359022 3.99597 0.0209948 3.51254 0.0209948 3.322C0.0209948 3.08793 2.97998 2.97558 9.14562 2.97558C14.5283 2.97558 18.2027 3.0985 18.1057 3.27531C18.0152 3.44016 18.1926 3.50105 18.4999 3.41061C19.2846 3.17973 21.7063 4.45519 22.5409 5.53892C23.6471 6.97527 23.9294 8.65522 23.4049 10.68C22.9175 12.5614 22.295 13.3167 20.4761 14.2328C19.4723 14.7385 19.3708 14.8703 19.8573 15.0367C21.6883 15.6631 23.7285 17.1356 24.5052 18.3915C26.7863 22.0792 25.2891 26.66 21.2025 28.4959C19.6406 29.1976 19.077 29.2406 10.0061 29.3508C4.7527 29.4145 0.356948 29.3572 0.237672 29.2231ZM16.0914 26.1278C18.221 24.6668 18.7157 20.8486 17.0516 18.7161C15.9579 17.3145 14.09 16.5393 11.2582 16.3118L9.1283 16.1407L9.12994 19.8879C9.13173 23.9716 9.46206 25.9142 10.2416 26.4256C10.518 26.6069 11.7356 26.7592 12.9475 26.764C14.6258 26.7708 15.3751 26.6193 16.0914 26.1278ZM14.457 13.0101C15.6644 12.219 16.0715 11.2919 16.2508 8.92546C16.3265 7.92553 16.3295 7.29636 16.2573 7.52731C16.1716 7.80163 15.9145 7.64448 15.5158 7.07406C14.714 5.9272 13.4585 5.36665 11.0764 5.09206L9.12835 4.86749V13.9706L11.2989 13.8139C12.7109 13.7119 13.8145 13.4311 14.457 13.0101ZM72.4058 28.9494C72.2455 28.4794 73.4263 26.8706 73.8226 27.0192C73.938 27.0625 73.9486 26.8522 73.8462 26.5518C73.7437 26.2515 73.7815 26.0905 73.9302 26.1941C74.0942 26.3084 74.1188 21.8797 73.9927 14.9268L73.7849 3.47115L72.9704 2.73715C72.4528 2.27061 72.2609 1.89312 72.4438 1.70116C72.7743 1.35421 78.1299 0.000330701 79.1717 0.000330701C79.5538 0.000330701 79.9383 0.210943 80.0261 0.468362C80.1139 0.725778 80.1611 4.14247 80.131 8.06053L80.0762 15.185L80.7164 15.1252C81.0685 15.0924 81.333 14.9678 81.304 14.8484C81.275 14.7291 82.0115 13.9243 82.9406 13.0601C84.6196 11.4982 85.0668 10.4154 84.1892 10.0365C83.9468 9.93182 83.7485 9.63897 83.7485 9.38573C83.7485 8.95664 85.3826 8.84263 91.5338 8.84263C92.608 8.84263 92.8289 8.95005 92.6761 9.398C92.5874 9.658 92.1024 10.0325 91.5982 10.2303C90.7093 10.5789 84.1564 15.3919 83.8761 15.9019C83.7996 16.0412 84.3496 16.2585 85.0982 16.3848C85.9769 16.5331 86.8057 16.9566 87.4364 17.5796C88.4466 18.5777 93.065 26.6696 92.9219 27.1912C92.8775 27.3531 92.9661 27.3987 93.1187 27.2926C93.3973 27.0989 94.6184 28.598 94.6184 29.1338C94.6184 29.5413 87.6446 29.4894 86.9595 29.0768C86.6462 28.8881 85.9802 27.8097 85.4793 26.6803C83.1627 21.4555 81.5744 18.5116 81.0726 18.5116C80.302 18.5116 80.1363 19.5817 80.3682 23.062C80.5719 26.1192 80.6081 26.2406 81.7183 27.5959C82.3457 28.3618 82.7727 29.0855 82.6672 29.2042C82.5617 29.3229 80.2458 29.4201 77.5207 29.4201C73.5073 29.4201 72.5358 29.3307 72.4056 28.9498L72.4058 28.9494ZM95.35 29.0837C95.1602 28.7382 96.657 26.7238 96.9515 26.9285C97.1919 27.0957 97.2072 24.7756 97.04 13.5787C96.8899 3.52923 96.8893 3.52196 96.1948 2.79771C95.8126 2.39916 95.4999 1.92502 95.4999 1.7441C95.4999 1.42594 101.176 -0.00052874 102.44 1.47032e-07C103.061 0.000254674 103.064 0.0392841 103.219 12.3135C103.317 20.0253 103.499 25.0844 103.708 25.852C103.895 26.5441 104.419 27.381 104.911 27.7752C105.39 28.159 105.782 28.6861 105.782 28.9464C105.782 29.339 104.909 29.4197 100.658 29.4197C97.504 29.4197 95.4637 29.2906 95.35 29.0837ZM107.101 29.0824C106.999 28.8969 107.255 28.2904 107.671 27.7347C108.087 27.179 108.509 26.3543 108.61 25.9021C108.711 25.4499 108.736 22.0191 108.666 18.2782L108.539 11.4764L107.681 10.7065C107.14 10.2216 106.929 9.82708 107.11 9.64088C107.269 9.47826 108.965 9.00542 110.879 8.59011C113.822 7.95181 114.4 7.90656 114.62 8.29758C114.764 8.55199 114.886 12.1813 114.892 16.3628C114.905 24.4815 115.074 26.0844 116.043 27.2449C116.381 27.6499 116.591 28.0818 116.508 28.2046C116.426 28.3275 116.446 28.355 116.552 28.2656C116.837 28.026 117.554 28.7843 117.366 29.1266C117.137 29.5451 107.332 29.5029 107.101 29.0824ZM140.489 29.1296C139.79 28.6222 139.578 26.1413 139.607 18.8421L139.636 11.7352L138.643 11.5699C137.749 11.4211 137.643 11.2889 137.582 10.2477C137.516 9.1368 137.583 9.05399 139.258 8.1685C140.279 7.62841 141.921 6.28011 143.221 4.91443C144.681 3.38046 145.489 2.73462 145.582 3.02693C145.661 3.27133 145.76 4.57634 145.804 5.92692L145.884 8.38254L147.838 8.30185C148.912 8.25747 149.869 8.36244 149.964 8.53512C150.059 8.7078 149.96 9.42408 149.745 10.1268C149.359 11.3845 149.326 11.4072 147.619 11.5699L145.884 11.7352L145.989 18.6768C146.054 22.9409 146.225 25.9351 146.432 26.4392C146.617 26.8906 147.192 27.5599 147.709 27.9267C148.227 28.2934 148.612 28.7423 148.565 28.9241C148.457 29.341 141.04 29.5297 140.489 29.1296ZM110.335 6.54413C108.928 5.63937 108.272 3.69812 108.849 2.14379C109.364 0.757908 110.357 0.000178646 111.657 0.000178646C114.699 0.000178646 115.849 4.26796 113.327 6.19807C112.264 7.0116 111.246 7.12944 110.335 6.54413Z" fill="white"/>
</svg>
