<svg width="61" height="51" viewBox="0 0 61 51" fill="none" xmlns="http://www.w3.org/2000/svg">
<path d="M50.3504 44.227C50.2064 44.3274 50.0583 44.4289 49.9077 44.5318C49.7612 44.6159 49.6141 44.724 49.4942 44.812C49.4475 44.8464 49.4049 44.8776 49.3682 44.9033C48.8343 45.2752 48.2673 45.6248 47.6629 45.9785L47.6591 45.9807C47.5745 46.0313 47.5036 46.0756 47.4396 46.1156C47.313 46.1947 47.2137 46.2567 47.09 46.3158L47.0782 46.3215L47.0668 46.3277C46.6693 46.5437 46.2801 46.7335 45.8797 46.9287C45.6754 47.0283 45.4681 47.1294 45.2554 47.236C45.1665 47.2787 45.0755 47.3262 44.9925 47.3697C44.9679 47.3826 44.9441 47.3951 44.9211 47.4069C44.8138 47.4627 44.7141 47.5124 44.6117 47.5552L44.6116 47.5551L44.6039 47.5585C43.9736 47.8345 43.3438 48.0853 42.7143 48.3108L42.7021 48.3152L42.6902 48.3202C42.4421 48.4239 42.2196 48.5165 42.0014 48.5849L41.9918 48.5879L41.9823 48.5913C41.5698 48.7391 41.1433 48.8615 40.6993 48.9888C40.4752 49.053 40.2467 49.1186 40.0133 49.1893C39.753 49.2452 39.4973 49.3254 39.267 49.3976L39.2614 49.3993C38.7684 49.5424 38.2515 49.6446 37.7135 49.751C37.522 49.7888 37.3278 49.8272 37.1311 49.8682C36.986 49.8852 36.8546 49.9151 36.7507 49.939L36.7413 49.9412C36.6271 49.9676 36.5519 49.9849 36.4797 49.9935L36.4652 49.9953L36.4508 49.9978C35.6158 50.1474 34.7775 50.2478 33.9034 50.3234L33.8735 50.3259L33.8442 50.3321C33.7127 50.3596 33.6419 50.3725 33.5805 50.3725H33.5615L33.5426 50.3739C32.5449 50.4498 31.521 50.5 30.5 50.5C29.49 50.5 28.477 50.4509 27.4589 50.3763C27.3524 50.354 27.2041 50.3245 27.0471 50.3217C26.1798 50.2463 25.3477 50.1464 24.5187 49.9978L24.5007 49.9946L24.4825 49.9927C24.2754 49.9711 24.0918 49.9278 23.8757 49.8762L23.8688 49.8745L23.8618 49.8731C23.1285 49.7198 22.4046 49.5684 21.682 49.3922L21.6739 49.3903L21.6658 49.3886C21.4499 49.3434 21.2294 49.2748 20.9811 49.1969L20.9706 49.1936L20.96 49.1908C20.3005 49.0153 19.6406 48.8147 18.9803 48.5889L18.9804 48.5887L18.9681 48.5849C18.7499 48.5165 18.5274 48.4239 18.2793 48.3202L18.264 48.3138L18.2483 48.3084C17.5937 48.0845 16.9701 47.8362 16.3773 47.5638C16.2766 47.5156 16.1678 47.4611 16.0537 47.4038L16.0513 47.4026C15.9386 47.3461 15.8206 47.2869 15.7095 47.2338L15.7021 47.2303L15.6946 47.227C15.0711 46.9539 14.4783 46.6566 13.9162 46.3352C13.8082 46.2708 13.7081 46.2128 13.611 46.1566L13.6095 46.1558C13.511 46.0988 13.4156 46.0435 13.3133 45.9825C13.1764 45.8981 13.0397 45.815 12.904 45.7323C12.4526 45.4575 12.0109 45.1886 11.6013 44.9033L11.5808 44.8889L11.5589 44.8768C11.461 44.8222 11.389 44.7689 11.2916 44.6969C11.2359 44.6558 11.172 44.6085 11.0902 44.5514C10.9512 44.4473 10.8007 44.3477 10.6632 44.2567C10.6369 44.2393 10.6111 44.2222 10.5859 44.2055C10.5031 44.1505 10.4251 44.0977 10.3515 44.0452V43.9715L10.1572 43.8214C4.21785 39.2318 0.5 32.7133 0.5 25.5C0.5 11.8058 13.8831 0.5 30.5 0.5C47.1169 0.5 60.5 11.8058 60.5 25.5C60.5 32.7131 56.7824 39.2312 50.8132 43.8206L50.3189 44.2007L50.3504 44.227ZM45.3222 38.6095L45.3257 38.6114C46.6275 39.3288 47.7128 40.1647 48.5572 41.0655L48.8824 41.4123L49.2452 41.105C53.9746 37.0989 56.925 31.5859 56.925 25.5C56.925 13.1842 44.9931 3.325 30.5 3.325C16.0069 3.325 4.075 13.1842 4.075 25.5C4.075 31.5859 7.0254 37.0989 11.7548 41.105L12.1115 41.4072L12.4369 41.0716C13.3185 40.1626 14.3771 39.3262 15.6743 38.6114L15.6764 38.6102C19.7471 36.3414 25.125 35.1927 30.5229 35.1927C35.9209 35.1927 41.2829 36.3414 45.3222 38.6095Z" fill="#787878" stroke="black"/>
<path d="M19.5625 22.1333C19.5625 17.2111 24.3751 13.0708 30.5 13.0708C36.6243 13.0708 41.4364 17.2101 41.4375 22.1317C41.4082 26.9613 36.8587 30.9942 30.8892 31.1703H30.8355H30.622H30.3535C24.1032 31.0192 19.5625 26.9555 19.5625 22.1333Z" fill="#787878" stroke="black"/>
</svg>
